# xmcd CD database file
#
# Track frame offsets:
#	182
#	18582
#	35025
#	50485
#	76085
#	93657
#	116375
#	132760
#	149057
#	166555
#	183597
#	201410
#	222585
#
# Disc length: 3151 seconds
#
# Revision: 1
# Processed by: cddbd v1.5.2PL0 Copyright (c) Steve Scherf et al.
# Submitted via: CDex 1.70beta2
#
DISCID=bd0c4d0d
DTITLE=Compilation SAXO - Saxo suite CD2
DYEAR=1991
DGENRE=Jazz
TTITLE0=If you leave me now
TTITLE1=La isla bonita
TTITLE2=Memories of Salisbury
TTITLE3=You are the sunshine of my life
TTITLE4=Kingston town
TTITLE5=Wind of chance
TTITLE6=Soledad
TTITLE7=Let it be
TTITLE8=Just the way you are
TTITLE9=Porque te vas
TTITLE10=Whales' cry
TTITLE11=Angie
TTITLE12=Wake up Joe
EXTD=YEAR: 1991
EXTT0=
EXTT1=
EXTT2=
EXTT3=
EXTT4=
EXTT5=
EXTT6=
EXTT7=
EXTT8=
EXTT9=
EXTT10=
EXTT11=
EXTT12=
PLAYORDER=
